<svg width="100" height="96" viewBox="0 0 100 96" fill="none" xmlns="http://www.w3.org/2000/svg">
<path fill-rule="evenodd" clip-rule="evenodd" d="M48.4744 2.03619C57.1447 0.31746 67.3252 -0.121886 74.3505 5.20739C81.3861 10.5444 79.8902 21.5452 84.2659 29.187C88.6012 36.7582 99.3769 41.0043 99.8284 49.7017C100.277 58.337 90.8072 63.9812 86.4609 71.4744C82.1086 78.9778 81.9996 90.0664 74.1849 93.9112C66.2892 97.796 57.224 91.205 48.4744 90.1641C40.9083 89.2639 32.9876 91.4081 26.0913 88.1897C18.9664 84.8647 13.9291 78.5083 9.56263 72.0048C4.98869 65.1922 0.770992 57.8726 0.250553 49.7017C-0.284282 41.3048 1.40541 32.3457 6.61381 25.7084C11.6534 19.2863 20.8224 18.4353 27.9478 14.4059C35.0232 10.4047 40.4892 3.61911 48.4744 2.03619Z" fill="url(#paint0_linear_15_782)"/>
<defs>
<linearGradient id="paint0_linear_15_782" x1="50" y1="0.875" x2="50" y2="95.125" gradientUnits="userSpaceOnUse">
<stop stop-color="#00FFD0"/>
<stop offset="0.5" stop-color="#FFEB80"/>
<stop offset="1" stop-color="white"/>
</linearGradient>
</defs>
</svg>
